<?xml version="1.0" encoding="utf-8"?>
<!-- Generator: Adobe Illustrator 19.1.0, SVG Export Plug-In . SVG Version: 6.00 Build 0)  -->
<svg version="1.1" id="Layer_1" xmlns="http://www.w3.org/2000/svg" xmlns:xlink="http://www.w3.org/1999/xlink" x="0px" y="0px"
	 viewBox="67 -90 533 581" style="enable-background:new 67 -90 533 581;" xml:space="preserve">
<style type="text/css">
	.st0{clip-path:url(#SVGID_2_);}
	.st1{clip-path:url(#SVGID_4_);}
	.st2{clip-path:url(#SVGID_6_);}
	.st3{clip-path:url(#SVGID_8_);}
	.st4{clip-path:url(#SVGID_10_);}
	.st5{clip-path:url(#SVGID_12_);}
	.st6{clip-path:url(#SVGID_14_);}
	.st7{clip-path:url(#SVGID_16_);}
	.st8{clip-path:url(#SVGID_18_);}
	.st9{clip-path:url(#SVGID_20_);}
	.st10{clip-path:url(#SVGID_22_);}
	.st11{clip-path:url(#SVGID_24_);}
	.st12{clip-path:url(#SVGID_26_);}
	.st13{clip-path:url(#SVGID_28_);fill:url(#SVGID_29_);}
	.st14{clip-path:url(#SVGID_31_);fill:url(#SVGID_32_);}
	.st15{clip-path:url(#SVGID_34_);fill:url(#SVGID_35_);}
	.st16{clip-path:url(#SVGID_37_);fill:url(#SVGID_38_);}
	.st17{clip-path:url(#SVGID_40_);fill:url(#SVGID_41_);}
	.st18{clip-path:url(#SVGID_43_);fill:url(#SVGID_44_);}
	.st19{clip-path:url(#SVGID_46_);fill:url(#SVGID_47_);}
	.st20{fill:none;stroke:#FFFFFF;stroke-miterlimit:10;}
	.st21{fill:#FFFFFF;}
</style>
<g>
	<g>
		<g>
			<defs>
				<rect id="SVGID_1_" x="70.5" y="86.2" width="526" height="400.2"/>
			</defs>
			<clipPath id="SVGID_2_">
				<use xlink:href="#SVGID_1_"  style="overflow:visible;"/>
			</clipPath>
			<path class="st0" d="M133,418.9c3.7,0,4.6,2.9,4.7,3.3l0,0.1l4.1-1.4l0.1,0l0-0.1c-0.5-1.6-1.4-3-2.7-4c-1.6-1.3-3.7-2-6.2-2
				c-2.7,0-5.2,1-7,2.7c-1.9,1.8-3,4.4-3,7.3c0,5.8,4.1,10,9.7,10c2.3,0,4.3-0.8,5.3-2.2l0.3,1.8h3.6V424h-9.8v3.7h5.7
				c-0.3,1.1-1.6,3-4.6,3c-3.9,0-5.7-3-5.7-6C127.5,421.9,129.2,418.9,133,418.9"/>
		</g>
		<g>
			<defs>
				<rect id="SVGID_3_" x="70.5" y="86.2" width="526" height="400.2"/>
			</defs>
			<clipPath id="SVGID_4_">
				<use xlink:href="#SVGID_3_"  style="overflow:visible;"/>
			</clipPath>
			<path class="st1" d="M168.2,421.2c0-3.5-2.6-6-6.2-6h-7.6v19.2h4.4v-7.1h1.4l3.4,7.1l0,0h4.8l-3.9-7.7
				C166.8,425.7,168.2,423.7,168.2,421.2 M163.7,421.2c0,1.4-1,2.2-2.6,2.2h-2.4V419h2.4C162.8,419,163.7,419.8,163.7,421.2"/>
		</g>
		<g>
			<defs>
				<rect id="SVGID_5_" x="70.5" y="86.2" width="526" height="400.2"/>
			</defs>
			<clipPath id="SVGID_6_">
				<use xlink:href="#SVGID_5_"  style="overflow:visible;"/>
			</clipPath>
			<polygon class="st2" points="184.4,426.7 191.5,426.7 191.5,422.8 184.4,422.8 184.4,419.3 192.2,419.3 192.2,415.2 180,415.2 
				180,434.3 192.2,434.3 192.2,430.2 184.4,430.2 			"/>
		</g>
		<g>
			<defs>
				<rect id="SVGID_7_" x="70.5" y="86.2" width="526" height="400.2"/>
			</defs>
			<clipPath id="SVGID_8_">
				<use xlink:href="#SVGID_7_"  style="overflow:visible;"/>
			</clipPath>
			<path class="st3" d="M214.9,415.2h-5l-7.2,19.1l0,0.1h4.6l1.4-3.9h7.3l1.4,3.9h4.8L214.9,415.2L214.9,415.2z M214.5,426.5h-4.4
				l2.2-6.3L214.5,426.5z"/>
		</g>
		<g>
			<defs>
				<rect id="SVGID_9_" x="70.5" y="86.2" width="526" height="400.2"/>
			</defs>
			<clipPath id="SVGID_10_">
				<use xlink:href="#SVGID_9_"  style="overflow:visible;"/>
			</clipPath>
			<polygon class="st4" points="229.3,419.4 235.1,419.4 235.1,434.3 239.5,434.3 239.5,419.4 245.4,419.4 245.4,415.2 229.3,415.2 
							"/>
		</g>
		<g>
			<defs>
				<rect id="SVGID_11_" x="70.5" y="86.2" width="526" height="400.2"/>
			</defs>
			<clipPath id="SVGID_12_">
				<use xlink:href="#SVGID_11_"  style="overflow:visible;"/>
			</clipPath>
			<polygon class="st5" points="287.4,427.9 282.2,415.2 282.2,415.2 276.6,415.2 276.6,434.3 280.7,434.3 280.7,422.1 285.6,434.3 
				285.6,434.3 289.1,434.3 294,422 294,434.3 298.3,434.3 298.3,415.2 292.4,415.2 			"/>
		</g>
		<g>
			<defs>
				<rect id="SVGID_13_" x="70.5" y="86.2" width="526" height="400.2"/>
			</defs>
			<clipPath id="SVGID_14_">
				<use xlink:href="#SVGID_13_"  style="overflow:visible;"/>
			</clipPath>
			<rect x="311.1" y="415.2" class="st6" width="4.4" height="19.2"/>
		</g>
		<g>
			<defs>
				<rect id="SVGID_15_" x="70.5" y="86.2" width="526" height="400.2"/>
			</defs>
			<clipPath id="SVGID_16_">
				<use xlink:href="#SVGID_15_"  style="overflow:visible;"/>
			</clipPath>
			<polygon class="st7" points="340.6,426.6 333.6,415.2 333.6,415.2 328.3,415.2 328.3,434.3 332.6,434.3 332.6,422 340.4,434.3 
				340.4,434.3 345,434.3 345,415.2 340.6,415.2 			"/>
		</g>
		<g>
			<defs>
				<rect id="SVGID_17_" x="70.5" y="86.2" width="526" height="400.2"/>
			</defs>
			<clipPath id="SVGID_18_">
				<use xlink:href="#SVGID_17_"  style="overflow:visible;"/>
			</clipPath>
			<path class="st8" d="M364.8,415.2h-7v19.2h6.9c5.9,0,9.7-3.8,9.7-9.6C374.4,418.9,370.6,415.2,364.8,415.2 M369.8,424.8
				c0,3.4-2,5.4-5.3,5.4h-2.4v-10.9h2.4C367.9,419.3,369.8,421.3,369.8,424.8"/>
		</g>
		<g>
			<defs>
				<rect id="SVGID_19_" x="70.5" y="86.2" width="526" height="400.2"/>
			</defs>
			<clipPath id="SVGID_20_">
				<use xlink:href="#SVGID_19_"  style="overflow:visible;"/>
			</clipPath>
			<path class="st9" d="M394.1,422.9l-2.6-0.5c-1.2-0.2-1.8-0.8-1.8-1.8c0-1,1-2,2.5-2c2.6,0,3,1.9,3.1,2.3l0,0.1l3.9-1.1l0.1,0
				l0-0.1c-0.2-1.2-1.4-5.1-7-5.1c-3.9,0-6.9,2.7-6.9,6.2c0,2.9,2,5,5.2,5.7l2.6,0.5c1.2,0.2,2,0.9,2,1.8c0,1.2-1,1.9-2.6,1.9
				c-2.2,0-3.7-1.2-3.9-3.2l0-0.1l-4,1l-0.1,0l0,0.1c0.2,2.3,2.1,6.2,7.9,6.2c2.7,0,4.3-1,5.3-1.9c1.2-1.1,1.8-2.6,1.8-4.2
				C399.6,425.7,397.5,423.5,394.1,422.9"/>
		</g>
		<g>
			<defs>
				<rect id="SVGID_21_" x="70.5" y="86.2" width="526" height="400.2"/>
			</defs>
			<clipPath id="SVGID_22_">
				<use xlink:href="#SVGID_21_"  style="overflow:visible;"/>
			</clipPath>
			<path class="st10" d="M556.3,125.8H302.7c-3.5,0-6.3,2.8-6.3,6.3v247.9H82.1v89.4h358.3v-76.8h115.9c3.5,0,6.3-2.8,6.3-6.3V132.1
				C562.6,128.7,559.8,125.8,556.3,125.8 M427.8,456.8H94.7v-64.1h208h125.1V456.8z M550,380.1H440.4H309V138.5h241V380.1z"/>
		</g>
		<g>
			<defs>
				<rect id="SVGID_23_" x="70.5" y="86.2" width="526" height="400.2"/>
			</defs>
			<clipPath id="SVGID_24_">
				<use xlink:href="#SVGID_23_"  style="overflow:visible;"/>
			</clipPath>
			<polygon class="st11" points="573.6,373.3 573.6,380 572.5,380 572.5,373.3 569.9,373.3 569.9,372.3 576.2,372.3 576.2,373.3 			
				"/>
		</g>
		<g>
			<defs>
				<rect id="SVGID_25_" x="70.5" y="86.2" width="526" height="400.2"/>
			</defs>
			<clipPath id="SVGID_26_">
				<use xlink:href="#SVGID_25_"  style="overflow:visible;"/>
			</clipPath>
			<polygon class="st12" points="585.7,380 585.7,374 583,380 582.1,380 579.4,374 579.4,380 578.4,380 578.4,372.3 579.8,372.3 
				582.6,378.6 585.3,372.3 586.8,372.3 586.8,380 			"/>
		</g>
	</g>
	<g>
		<g>
			<defs>
				<path id="SVGID_27_" d="M293,71.8c0,8.9,4.9,18.4,15.9,18.4c2,0,6.1-0.1,10.4-4.1v3.2h6.9V69.9h-15.4v6.7h7.9
					c-0.3,5.1-4.5,6.6-7.7,6.6c-8,0-9.3-7.4-9.3-11.6c0-7.2,3.6-11.4,9.2-11.4c4.1,0,7,2.5,8.3,5l6.7-4.1c-1.5-1.9-6.2-8.2-15.6-8.2
					C297.9,53,293,63.4,293,71.8"/>
			</defs>
			<clipPath id="SVGID_28_">
				<use xlink:href="#SVGID_27_"  style="overflow:visible;"/>
			</clipPath>
			
				<linearGradient id="SVGID_29_" gradientUnits="userSpaceOnUse" x1="130.2504" y1="-417.663" x2="131.2504" y2="-417.663" gradientTransform="matrix(33.2021 0 0 33.2021 -4031.55 13938.917)">
				<stop  offset="0" style="stop-color:#E93E3A"/>
				<stop  offset="0.2198" style="stop-color:#E93E3A"/>
				<stop  offset="0.3487" style="stop-color:#ED683C"/>
				<stop  offset="0.4003" style="stop-color:#ED6A3C"/>
				<stop  offset="0.4189" style="stop-color:#EE6F3B"/>
				<stop  offset="0.4321" style="stop-color:#EF783A"/>
				<stop  offset="0.4428" style="stop-color:#F18437"/>
				<stop  offset="0.452" style="stop-color:#F39332"/>
				<stop  offset="0.4601" style="stop-color:#F7A629"/>
				<stop  offset="0.4673" style="stop-color:#FBBD19"/>
				<stop  offset="0.4698" style="stop-color:#FDC70C"/>
				<stop  offset="0.8402" style="stop-color:#F3903F"/>
				<stop  offset="1" style="stop-color:#FFF33B"/>
			</linearGradient>
			<rect x="293" y="53" class="st13" width="33.2" height="37.3"/>
		</g>
	</g>
	<g>
		<g>
			<defs>
				<polygon id="SVGID_30_" points="334,54.2 334,89.5 361.7,89.5 361.7,82.5 342.8,82.5 342.8,74.1 359,74.1 359,67.4 342.8,67.4 
					342.8,61 360.1,61 360.1,54.2 				"/>
			</defs>
			<clipPath id="SVGID_31_">
				<use xlink:href="#SVGID_30_"  style="overflow:visible;"/>
			</clipPath>
			
				<linearGradient id="SVGID_32_" gradientUnits="userSpaceOnUse" x1="129.4977" y1="-419.3997" x2="130.4977" y2="-419.3997" gradientTransform="matrix(27.6514 0 0 27.6514 -3246.7563 11668.8184)">
				<stop  offset="0" style="stop-color:#E93E3A"/>
				<stop  offset="0.2198" style="stop-color:#E93E3A"/>
				<stop  offset="0.3487" style="stop-color:#ED683C"/>
				<stop  offset="0.4003" style="stop-color:#ED6A3C"/>
				<stop  offset="0.4189" style="stop-color:#EE6F3B"/>
				<stop  offset="0.4321" style="stop-color:#EF783A"/>
				<stop  offset="0.4428" style="stop-color:#F18437"/>
				<stop  offset="0.452" style="stop-color:#F39332"/>
				<stop  offset="0.4601" style="stop-color:#F7A629"/>
				<stop  offset="0.4673" style="stop-color:#FBBD19"/>
				<stop  offset="0.4698" style="stop-color:#FDC70C"/>
				<stop  offset="0.8402" style="stop-color:#F3903F"/>
				<stop  offset="1" style="stop-color:#FFF33B"/>
			</linearGradient>
			<rect x="334" y="54.2" class="st14" width="27.7" height="35.3"/>
		</g>
	</g>
	<g>
		<g>
			<defs>
				<polygon id="SVGID_33_" points="389.6,54.2 389.6,75.7 377,54.2 368.4,54.2 368.4,89.5 376.9,89.5 376.9,68.4 389.4,89.5 
					398,89.5 398,54.2 				"/>
			</defs>
			<clipPath id="SVGID_34_">
				<use xlink:href="#SVGID_33_"  style="overflow:visible;"/>
			</clipPath>
			
				<linearGradient id="SVGID_35_" gradientUnits="userSpaceOnUse" x1="129.8011" y1="-418.6982" x2="130.8011" y2="-418.6982" gradientTransform="matrix(29.6514 0 0 29.6514 -3480.397 12486.8184)">
				<stop  offset="0" style="stop-color:#E93E3A"/>
				<stop  offset="0.2198" style="stop-color:#E93E3A"/>
				<stop  offset="0.3487" style="stop-color:#ED683C"/>
				<stop  offset="0.4003" style="stop-color:#ED6A3C"/>
				<stop  offset="0.4189" style="stop-color:#EE6F3B"/>
				<stop  offset="0.4321" style="stop-color:#EF783A"/>
				<stop  offset="0.4428" style="stop-color:#F18437"/>
				<stop  offset="0.452" style="stop-color:#F39332"/>
				<stop  offset="0.4601" style="stop-color:#F7A629"/>
				<stop  offset="0.4673" style="stop-color:#FBBD19"/>
				<stop  offset="0.4698" style="stop-color:#FDC70C"/>
				<stop  offset="0.8402" style="stop-color:#F3903F"/>
				<stop  offset="1" style="stop-color:#FFF33B"/>
			</linearGradient>
			<rect x="368.4" y="54.2" class="st15" width="29.7" height="35.3"/>
		</g>
	</g>
	<g>
		<g>
			<defs>
				<polygon id="SVGID_36_" points="401.8,54.2 401.8,61.1 411,61.1 411,89.5 419.9,89.5 419.9,61.1 429.1,61.1 429.1,54.2 				"/>
			</defs>
			<clipPath id="SVGID_37_">
				<use xlink:href="#SVGID_36_"  style="overflow:visible;"/>
			</clipPath>
			
				<linearGradient id="SVGID_38_" gradientUnits="userSpaceOnUse" x1="129.4311" y1="-419.5528" x2="130.4311" y2="-419.5528" gradientTransform="matrix(27.251 0 0 27.251 -3125.29 11505.0625)">
				<stop  offset="0" style="stop-color:#E93E3A"/>
				<stop  offset="0.2198" style="stop-color:#E93E3A"/>
				<stop  offset="0.3487" style="stop-color:#ED683C"/>
				<stop  offset="0.4003" style="stop-color:#ED6A3C"/>
				<stop  offset="0.4189" style="stop-color:#EE6F3B"/>
				<stop  offset="0.4321" style="stop-color:#EF783A"/>
				<stop  offset="0.4428" style="stop-color:#F18437"/>
				<stop  offset="0.452" style="stop-color:#F39332"/>
				<stop  offset="0.4601" style="stop-color:#F7A629"/>
				<stop  offset="0.4673" style="stop-color:#FBBD19"/>
				<stop  offset="0.4698" style="stop-color:#FDC70C"/>
				<stop  offset="0.8402" style="stop-color:#F3903F"/>
				<stop  offset="1" style="stop-color:#FFF33B"/>
			</linearGradient>
			<rect x="401.8" y="54.2" class="st16" width="27.3" height="35.3"/>
		</g>
	</g>
	<g>
		<g>
			<defs>
				<path id="SVGID_39_" d="M439.4,71.6c0-4.8,2-11.1,8.8-11.1c6.3,0,9.1,5.1,9.1,11.5c0,4.9-2.4,11.1-8.9,11.1
					C441.9,83,439.4,77.2,439.4,71.6 M430.7,71.7c0,9.7,5.9,18.9,17.6,18.9c11.4,0,17.8-9,17.8-18.5c0-8.4-5-19-17.9-19
					C435.4,53.1,430.7,63.6,430.7,71.7"/>
			</defs>
			<clipPath id="SVGID_40_">
				<use xlink:href="#SVGID_39_"  style="overflow:visible;"/>
			</clipPath>
			
				<linearGradient id="SVGID_41_" gradientUnits="userSpaceOnUse" x1="130.4782" y1="-417.1346" x2="131.4782" y2="-417.1346" gradientTransform="matrix(35.3516 0 0 35.3516 -4181.9268 14818.1797)">
				<stop  offset="0" style="stop-color:#E93E3A"/>
				<stop  offset="0.2198" style="stop-color:#E93E3A"/>
				<stop  offset="0.3487" style="stop-color:#ED683C"/>
				<stop  offset="0.4003" style="stop-color:#ED6A3C"/>
				<stop  offset="0.4189" style="stop-color:#EE6F3B"/>
				<stop  offset="0.4321" style="stop-color:#EF783A"/>
				<stop  offset="0.4428" style="stop-color:#F18437"/>
				<stop  offset="0.452" style="stop-color:#F39332"/>
				<stop  offset="0.4601" style="stop-color:#F7A629"/>
				<stop  offset="0.4673" style="stop-color:#FBBD19"/>
				<stop  offset="0.4698" style="stop-color:#FDC70C"/>
				<stop  offset="0.8402" style="stop-color:#F3903F"/>
				<stop  offset="1" style="stop-color:#FFF33B"/>
			</linearGradient>
			<rect x="430.7" y="53.1" class="st17" width="35.4" height="37.5"/>
		</g>
	</g>
	<g>
		<g>
			<defs>
				<path id="SVGID_42_" d="M479,71.6c0-4.8,2-11.1,8.8-11.1c6.2,0,9,5.1,9,11.5c0,4.9-2.4,11.1-8.9,11.1
					C481.5,83,479,77.2,479,71.6 M470.3,71.7c0,9.7,5.9,18.9,17.5,18.9c11.4,0,17.8-9,17.8-18.5c0-8.4-5-19-17.9-19
					C475,53.1,470.3,63.6,470.3,71.7"/>
			</defs>
			<clipPath id="SVGID_43_">
				<use xlink:href="#SVGID_42_"  style="overflow:visible;"/>
			</clipPath>
			
				<linearGradient id="SVGID_44_" gradientUnits="userSpaceOnUse" x1="130.4784" y1="-417.1346" x2="131.4784" y2="-417.1346" gradientTransform="matrix(35.3516 0 0 35.3516 -4142.333 14818.1797)">
				<stop  offset="0" style="stop-color:#E93E3A"/>
				<stop  offset="0.2198" style="stop-color:#E93E3A"/>
				<stop  offset="0.3487" style="stop-color:#ED683C"/>
				<stop  offset="0.4003" style="stop-color:#ED6A3C"/>
				<stop  offset="0.4189" style="stop-color:#EE6F3B"/>
				<stop  offset="0.4321" style="stop-color:#EF783A"/>
				<stop  offset="0.4428" style="stop-color:#F18437"/>
				<stop  offset="0.452" style="stop-color:#F39332"/>
				<stop  offset="0.4601" style="stop-color:#F7A629"/>
				<stop  offset="0.4673" style="stop-color:#FBBD19"/>
				<stop  offset="0.4698" style="stop-color:#FDC70C"/>
				<stop  offset="0.8402" style="stop-color:#F3903F"/>
				<stop  offset="1" style="stop-color:#FFF33B"/>
			</linearGradient>
			<rect x="470.3" y="53.1" class="st18" width="35.4" height="37.5"/>
		</g>
	</g>
	<g>
		<g>
			<defs>
				<path id="SVGID_45_" d="M371.7-37.8c1.5,0.3,3,0.2,4.2-0.4c0.9-0.5,0.4-0.8-0.6-0.8C374.3-39,372.8-38.7,371.7-37.8 M339.3-75.7
					c-0.7,0.9-1.2,3.1-1.7,5.2c-0.2,0.8-1.5,0.5-2.6,0.2c-0.9-0.3-1.8-0.5-2-0.2c-0.2,0.3-1.2,4.1-1.3,4.4c-0.6,0.9,0.6,2.4,0,3.4
					c-0.9,1.5,0.8,2.7,0,4.4c-4.3,8.9-7.8,19.9-9.6,32c-4.8,32.2,3.4,60.1,18.3,62.3c14.9,2.2,43.5-22.6,35.8-54.2
					c-0.6-2.6-2.1-3-0.9-4.3c0.5-0.6-3.7-3.4,0.3-3.7c0.5,0,0.9-0.5,0.3-1c-6.4-6-6-9.2-4.2-10.7c-9.1-1.6-21.5-16.1-8.6-17.5
					c2.8-0.3-3.8-5.7-4.7-8c-1-2.9,0.1-5.5-1.3-7.7c-2.1-3.3,2.8-1.1,0-2.7c-1.4-0.8-0.1-1.1-1.7-1.3c-1.6-0.2-3.1,0.2-4.6,0.7
					c-2.6,0.8-4.8,1.7-6.2-1.6c-0.4-0.9-1.1-1.3-2-1.3C341.5-77.3,340.2-76.6,339.3-75.7"/>
			</defs>
			<clipPath id="SVGID_46_">
				<use xlink:href="#SVGID_45_"  style="overflow:visible;"/>
			</clipPath>
			
				<linearGradient id="SVGID_47_" gradientUnits="userSpaceOnUse" x1="131.1408" y1="-413.4102" x2="132.1412" y2="-413.4102" gradientTransform="matrix(57.3552 8.6089 -8.9586 59.6854 -10903.502 23521.6953)">
				<stop  offset="0" style="stop-color:#FFF33B"/>
				<stop  offset="5.950000e-02" style="stop-color:#FFE029"/>
				<stop  offset="0.1303" style="stop-color:#FFD218"/>
				<stop  offset="0.2032" style="stop-color:#FEC90F"/>
				<stop  offset="0.2809" style="stop-color:#FDC70C"/>
				<stop  offset="0.6685" style="stop-color:#F3903F"/>
				<stop  offset="0.8876" style="stop-color:#ED683C"/>
				<stop  offset="1" style="stop-color:#E93E3A"/>
			</linearGradient>
			<polygon class="st19" points="318.7,-87.1 400.8,-74.8 382.4,48 300.3,35.7 			"/>
		</g>
	</g>
	<g>
		<path class="st20" d="M376.1-18.2c7.7,31.6-20.8,56.4-35.8,54.2c-14.9-2.2-23.1-30.1-18.3-62.3c1.8-12.1,5.2-23.1,9.6-32
			c0.8-1.7-0.9-2.9,0-4.4c0.6-1-0.6-2.5,0-3.4c0.2-0.3,1.2-4.1,1.3-4.4c0.5-0.7,4.3,1.5,4.7,0c0.5-2.1,0.9-4.4,1.7-5.2
			c1.5-1.7,4.4-2.5,5.3-0.4c2.2,5.1,6.4,0.3,10.8,0.9c1.6,0.2,0.2,0.5,1.7,1.3c2.8,1.5-2.1-0.6,0,2.7c1.4,2.2,0.3,4.8,1.3,7.7
			c0.9,2.4,7.5,7.7,4.7,8c-15.1,1.7,4.4,21.1,12.7,17.1c3.5-1.7-13.7-1.7,0,11.1c0.5,0.5,0.2,1-0.3,1c-4,0.3,0.2,3.1-0.3,3.7
			C374.1-21.2,375.5-20.8,376.1-18.2z"/>
		<path d="M325.3-43c0,0-0.2,0.8-0.5,2.7c-0.4,2.5-2.2,6.3-2.2,10.7c0,0-6.2-0.6-18,7.3C304.4-22.3,301.7-42.2,325.3-43"/>
		<path class="st20" d="M325.3-43c0,0-0.2,0.8-0.5,2.7c-0.4,2.5-2.2,6.3-2.2,10.7c0,0-6.2-0.6-18,7.3
			C304.4-22.3,301.7-42.2,325.3-43z"/>
		<path d="M370.4-44.1c0,0,31.5-2.2,45.3,23.7c0,0-10.5-7-20.2-7c-9.7,0-13.5,2.4-22.4-4L370.4-44.1z"/>
		<path class="st20" d="M370.4-44.1c0,0,31.5-2.2,45.3,23.7c0,0-10.5-7-20.2-7c-9.7,0-13.5,2.4-22.4-4L370.4-44.1z"/>
		<path d="M362.8-60.8c0,0-1.1-35.3-33.4-21.3c0,0-12.1-5.4-15.9-0.3c0,0,4.9,0,13.2,8.1c8.4,8.1,0.3,25.1,0.3,25.1
			s3.5-4.9,5.1-11.1c0.2-0.9,0.4-1.9,0.6-2.9c0.6-3.3,1.1-6.7,4.1-6.2c1.1,0.2,2.5,0.9,4.5,2.4c1.7,1.3,3.7,3.3,6.2,5.9
			c0.5,0.6,1.1,1.2,1.6,1.8c1.4,1.6,2.8,3.3,4.2,5.2c2.3,3.1,4.4,6.7,6.4,10.5c1.8,3.5,3.5,7.4,5,11.4c1.5,4.1,2.8,8.5,3.7,13
			c0.9,4.4,1.6,8.9,1.8,13.4c0.2,4.1,0.2,8.2-0.2,12.4c-0.5,5.4-1.6,10.8-3.3,16c-0.7,2-1.4,4-2.3,6c-1,2.3-2.1,4.5-3.4,6.7l5.9-0.3
			C366.9,35.1,395.7-13.6,362.8-60.8"/>
		<path class="st20" d="M362.8-60.8c0,0-1.1-35.3-33.4-21.3c0,0-12.1-5.4-15.9-0.3c0,0,4.9,0,13.2,8.1c8.4,8.1,0.3,25.1,0.3,25.1
			s3.5-4.9,5.1-11.1c0.2-0.9,0.4-1.9,0.6-2.9c0.6-3.3,1.1-6.7,4.1-6.2c1.1,0.2,2.5,0.9,4.5,2.4c1.7,1.3,3.7,3.3,6.2,5.9
			c0.5,0.6,1.1,1.2,1.6,1.8c1.4,1.6,2.8,3.3,4.2,5.2c2.3,3.1,4.4,6.7,6.4,10.5c1.8,3.5,3.5,7.4,5,11.4c1.5,4.1,2.8,8.5,3.7,13
			c0.9,4.4,1.6,8.9,1.8,13.4c0.2,4.1,0.2,8.2-0.2,12.4c-0.5,5.4-1.6,10.8-3.3,16c-0.7,2-1.4,4-2.3,6c-1,2.3-2.1,4.5-3.4,6.7l5.9-0.3
			C366.9,35.1,395.7-13.6,362.8-60.8z"/>
		<path d="M335,33.6c0,0-8.4-7.4-12.2-21.5c0,0,0.4,12.6,8.3,22.5L335,33.6z"/>
		<path class="st20" d="M335,33.6c0,0-8.4-7.4-12.2-21.5c0,0,0.4,12.6,8.3,22.5L335,33.6z"/>
		<path d="M293.4,41.2c0,0,55.7-8.3,107.5,0C401,41.2,353.8,18.3,293.4,41.2"/>
		<path class="st20" d="M293.4,41.2c0,0,55.7-8.3,107.5,0C401,41.2,353.8,18.3,293.4,41.2z"/>
		<path class="st21" d="M345.8-76.8c-0.3,1-2,1.4-3.7,0.9s-2.9-1.8-2.5-2.8c0.3-1,2-1.4,3.7-0.9C344.9-79.1,346.1-77.8,345.8-76.8"
			/>
		
			<ellipse transform="matrix(0.2936 -0.9559 0.9559 0.2936 316.3357 272.6373)" class="st20" cx="342.6" cy="-77.7" rx="2" ry="3.3"/>
	</g>
</g>
</svg>
